<?xml version="1.0" standalone="no"?><!DOCTYPE svg PUBLIC "-//W3C//DTD SVG 1.1//EN" "http://www.w3.org/Graphics/SVG/1.1/DTD/svg11.dtd" ><svg xmlns="http://www.w3.org/2000/svg"><metadata></metadata><defs><font id="2.242;JB;JetBrainsMono-Light" horiz-adv-x="600"><font-face font-family="JetBrains Mono Light" font-weight="300" font-stretch="normal" units-per-em="1000" panose-1="2 0 0 9 0 0 0 0 0 0" ascent="1020" descent="-300" x-height="0" bbox="-20 -400 620 1120" underline-thickness="50" underline-position="-155" unicode-range="U+0020-251c" /><missing-glyph horiz-adv-x="600" d="M90 0 l0 730 l420 0 l0 -730 l-420 0 ZM140 109 l300 571 l-300 0 l0 -571 ZM160 50 l300 0 l0 571 l-300 -571 Z" /><glyph glyph-name="A" unicode="A" d="M55 0 l193 730 l105 0 l192 -730 l-80 0 l-51 198 l-228 0 l-50 -198 l-81 0 ZM202 266 l195 0 l-62 244 q-15 61 -24 102 q-9 41 -11 54 q-2 -13 -11 -54 q-9 -41 -24 -102 l-63 -244 Z" /><glyph glyph-name="B" unicode="B" d="M98 0 l0 730 l201 0 q98 0 154 -50.5 q56 -50.5 56 -138.5 q0 -60 -29.5 -102 q-29.5 -42 -81.5 -56 q60 -15 94 -62.5 q34 -47.5 34 -118.5 q0 -93 -57.5 -147.5 q-57.5 -54.5 -157.5 -54.5 l-213 0 ZM175 413 l124 0 q61 0 96 33 q35 33 35 90 q0 57 -35 89.5 q-35 32.5 -96 32.5 l-124 0 l0 -245 ZM175 72 l129 0 q67 0 105.5 35.5 q38.5 35.5 38.5 96.5 q0 63 -38.5 101.5 q-38.5 38.5 -105.5 38.5 l-129 0 l0 -272 Z" /><glyph glyph-name="C" unicode="C" d="M305 -10 q-98 0 -155 55.5 q-57 55.5 -57 151.5 l0 336 q0 96 57 151.5 q57 55.5 155 55.5 q96 0 153.5 -56.5 q57.5 -56.5 57.5 -153.5 l-79 0 q0 66 -35.5 102.5 q-35.5 36.5 -96.5 36.5 q-63 0 -98 -35.5 q-35 -35.5 -35 -100.5 l0 -336 q0 -65 35 -100.5 q35 -35.5 98 -35.5 q62 0 97 36.5 q35 36.5 35 102.5 l79 0 q0 -97 -57.5 -153.5 q-57.5 -56.5 -153.5 -56.5 Z" /><glyph glyph-name="D" unicode="D" d="M97 0 l0 730 l181 0 q70 0 121.5 -27 q51.5 -27 79.5 -76.5 q28 -49.5 28 -115.5 l0 -291 q0 -67 -28 -116.5 q-28 -49.5 -79.5 -76.5 q-51.5 -27 -121.5 -27 l-181 0 ZM176 71 l102 0 q69 0 109.5 40 q40.5 40 40.5 109 l0 291 q0 68 -40.5 108 q-40.5 40 -109.5 40 l-102 0 l0 -588 Z" /><glyph glyph-name="E" unicode="E" d="M105 0 l0 730 l412 0 l0 -72 l-333 0 l0 -241 l298 0 l0 -71 l-298 0 l0 -274 l333 0 l0 -72 l-412 0 Z" /><glyph glyph-name="F" unicode="F" d="M100 0 l0 730 l425 0 l0 -72 l-347 0 l0 -256 l319 0 l0 -72 l-317 0 l0 -330 l-80 0 Z" /><glyph glyph-name="G" unicode="G" d="M305 -10 q-98 0 -155 55.5 q-57 55.5 -57 151.5 l0 336 q0 96 57 151.5 q57 55.5 155 55.5 q96 0 153.5 -56.5 q57.5 -56.5 57.5 -153.5 l-79 0 q0 66 -35.5 102.5 q-35.5 36.5 -96.5 36.5 q-63 0 -98 -35.5 q-35 -35.5 -35 -100.5 l0 -336 q0 -65 35 -100.5 q35 -35.5 98 -35.5 q62 0 97 36.5 q35 36.5 35 102.5 l0 95 l-155 0 l0 73 l234 0 l0 -168 q0 -97 -57.5 -153.5 q-57.5 -56.5 -153.5 -56.5 Z" /><glyph glyph-name="H" unicode="H" d="M98 0 l0 730 l79 0 l0 -316 l246 0 l0 316 l79 0 l0 -730 l-79 0 l0 341 l-246 0 l0 -341 l-79 0 Z" /><glyph glyph-name="I" unicode="I" d="M109 0 l0 72 l151 0 l0 586 l-151 0 l0 72 l382 0 l0 -72 l-150 0 l0 -586 l150 0 l0 -72 l-382 0 Z" /><glyph glyph-name="J" unicode="J" d="M271 -10 q-102 0 -160.5 58 q-58.5 58 -58.5 159 l79 0 q0 -69 37 -107.5 q37 -38.5 103 -38.5 q66 0 103.5 38.5 q37.5 38.5 37.5 107.5 l0 450 l-211 0 l0 73 l290 0 l0 -523 q0 -101 -59 -159 q-59 -58 -161 -58 Z" /><glyph glyph-name="K" unicode="K" d="M97 0 l0 730 l79 0 l0 -317 l120 0 l162 317 l87 0 l-179 -350 l189 -380 l-92 0 l-169 343 l-118 0 l0 -343 l-79 0 Z" /><glyph glyph-name="L" unicode="L" d="M133 0 l0 730 l79 0 l0 -658 l337 0 l0 -72 l-416 0 Z" /><glyph glyph-name="M" unicode="M" d="M80 0 l0 730 l107 0 l84 -248 q10 -29 18.5 -59 q8.5 -30 12.5 -47 q4 17 12 47 q8 30 18 60 l81 247 l107 0 l0 -730 l-78 0 l0 370 q0 86 6 169 q6 83 15 151 l-124 -369 l-78 0 l-125 369 q9 -66 15.5 -146.5 q6.5 -80.5 6.5 -173.5 l0 -370 l-78 0 Z" /><glyph glyph-name="N" unicode="N" d="M95 0 l0 730 l106 0 l235 -638 q-1 23 -3 56 q-2 33 -3.5 68 q-1.5 35 -1.5 64 l0 450 l77 0 l0 -730 l-107 0 l-233 638 q2 -30 4.5 -84 q2.5 -54 2.5 -104 l0 -450 l-77 0 Z" /><glyph glyph-name="O" unicode="O" d="M300 -10 q-96 0 -151.5 55.5 q-55.5 55.5 -55.5 151.5 l0 336 q0 96 55.5 151.5 q55.5 55.5 151.5 55.5 q96 0 151.5 -55.5 q55.5 -55.5 55.5 -151.5 l0 -336 q0 -96 -55.5 -151.5 q-55.5 -55.5 -151.5 -55.5 ZM300 61 q61 0 94.5 35.5 q33.5 35.5 33.5 100.5 l0 336 q0 65 -33.5 100.5 q-33.5 35.5 -94.5 35.5 q-61 0 -94.5 -35.5 q-33.5 -35.5 -33.5 -100.5 l0 -336 q0 -65 33.5 -100.5 q33.5 -35.5 94.5 -35.5 Z" /><glyph glyph-name="P" unicode="P" d="M97 0 l0 730 l229 0 q101 0 160.5 -57.5 q59.5 -57.5 59.5 -154.5 q0 -96 -59.5 -154 q-59.5 -58 -160.5 -58 l-150 0 l0 -306 l-79 0 ZM176 378 l150 0 q63 0 100.5 38 q37.5 38 37.5 102 q0 65 -37 102.5 q-37 37.5 -101 37.5 l-150 0 l0 -280 Z" /><glyph glyph-name="Q" unicode="Q" d="M429 -180 l-104 171 q-5 0 -11.5 -0.5 q-6.5 -0.5 -13.5 -0.5 q-98 0 -155.5 57.5 q-57.5 57.5 -57.5 153.5 l0 328 q0 96 57.5 153.5 q57.5 57.5 155.5 57.5 q98 0 155.5 -58 q57.5 -58 57.5 -153 l0 -328 q0 -66 -28 -115.5 q-28 -49.5 -80 -73.5 l117 -192 l-93 0 ZM300 61 q62 0 98 37.5 q36 37.5 36 102.5 l0 328 q0 65 -36 102.5 q-36 37.5 -98 37.5 q-62 0 -98 -37.5 q-36 -37.5 -36 -102.5 l0 -328 q0 -65 36 -102.5 q36 -37.5 98 -37.5 Z" /><glyph glyph-name="R" unicode="R" d="M97 0 l0 730 l220 0 q65 0 113.5 -26 q48.5 -26 75 -72.5 q26.5 -46.5 26.5 -109.5 q0 -76 -40 -128.5 q-40 -52.5 -109 -70.5 l158 -323 l-94 0 l-146 315 l-125 0 l0 -315 l-79 0 ZM176 387 l141 0 q61 0 97.5 37 q36.5 37 36.5 99 q0 61 -37 98 q-37 37 -97 37 l-141 0 l0 -271 Z" /><glyph glyph-name="S" unicode="S" d="M304 -10 q-104 0 -166.5 54.5 q-62.5 54.5 -62.5 145.5 l80 0 q0 -58 40.5 -93.5 q40.5 -35.5 108.5 -35.5 q66 0 104.5 34.5 q38.5 34.5 38.5 92.5 q0 47 -25.5 82.5 q-25.5 35.5 -69.5 48.5 l-101 32 q-73 22 -114.5 74.5 q-41.5 52.5 -41.5 123.5 q0 87 57.5 139 q57.5 52 153.5 52 q95 0 152 -52.5 q57 -52.5 57 -141.5 l-79 0 q0 56 -35.5 89.5 q-35.5 33.5 -94.5 33.5 q-61 0 -97 -32 q-36 -32 -36 -86 q0 -44 25 -76 q25 -32 69 -46 l105 -33 q70 -23 111.5 -78.5 q41.5 -55.5 41.5 -128.5 q0 -91 -60 -145 q-60 -54 -161 -54 Z" /><glyph glyph-name="T" unicode="T" d="M261 0 l0 658 l-205 0 l0 72 l488 0 l0 -72 l-204 0 l0 -658 l-79 0 Z" /><glyph glyph-name="U" unicode="U" d="M300 -10 q-98 0 -151.5 56 q-53.5 56 -53.5 151 l0 533 l79 0 l0 -533 q0 -63 32 -99.5 q32 -36.5 94 -36.5 q62 0 94 36.5 q32 36.5 32 99.5 l0 533 l79 0 l0 -533 q0 -96 -53 -151.5 q-53 -55.5 -152 -55.5 Z" /><glyph glyph-name="V" unicode="V" d="M246 0 l-191 730 l81 0 l132 -511 q12 -50 20.5 -92.5 q8.5 -42.5 12.5 -64.5 q4 22 13.5 65 q9.5 43 21.5 93 l128 510 l81 0 l-192 -730 l-107 0 Z" /><glyph glyph-name="W" unicode="W" d="M115 0 l-86 730 l75 0 l59 -540 q3 -31 6.5 -70 q3.5 -39 4.5 -63 q3 24 7 63 q4 39 9 70 l70 540 l85 0 l65 -540 q4 -31 8.5 -70 q4.5 -39 7.5 -63 q3 24 6.5 63 q3.5 39 7.5 70 l58 540 l73 0 l-87 -730 l-102 0 l-65 545 q-4 35 -8.5 71 q-4.5 36 -6.5 57 q-3 -21 -7 -57 q-4 -36 -8 -71 l-71 -545 l-101 0 Z" /><glyph glyph-name="X" unicode="X" d="M43 0 l212 373 l-199 357 l91 0 l115 -218 q9 -17 20.5 -38.5 q11.5 -21.5 18.5 -35.5 q7 14 18.5 35.5 q11.5 21.5 20.5 38.5 l117 218 l87 0 l-199 -352 l212 -378 l-91 0 l-128 237 q-9 17 -20 39 q-11 22 -18 36 q-8 -14 -19 -36 q-11 -22 -20 -38 l-130 -238 l-88 0 Z" /><glyph glyph-name="Y" unicode="Y" d="M260 0 l0 275 l-221 455 l82 0 l150 -308 q12 -24 19.5 -42 q7.5 -18 10.5 -27 q3 8 11 26.5 q8 18.5 19 42.5 l148 308 l82 0 l-221 -455 l0 -275 l-80 0 Z" /><glyph glyph-name="Z" unicode="Z" d="M86 0 l0 79 l337 579 l-332 0 l0 72 l412 0 l0 -81 l-336 -577 l347 0 l0 -72 l-428 0 Z" /><glyph glyph-name="a" unicode="a" d="M257 -10 q-87 0 -137 44.5 q-50 44.5 -50 120.5 q0 75 49 118.5 q49 43.5 132 43.5 l175 0 l0 58 q0 54 -32 84.5 q-32 30.5 -89 30.5 q-51 0 -86 -23.5 q-35 -23.5 -42 -61.5 l-80 0 q6 46 34 81 q28 35 73 54.5 q45 19.5 101 19.5 q92 0 146 -49.5 q54 -49.5 54 -133.5 l0 -377 l-78 0 l0 101 q-8 -52 -54 -81.5 q-46 -29.5 -116 -29.5 ZM276 54 q66 0 108 33 q42 33 42 86 l0 83 l-174 0 q-47 0 -75 -26 q-28 -26 -28 -71 q0 -48 34 -76.5 q34 -28.5 93 -28.5 Z" /><glyph glyph-name="b" unicode="b" d="M327 -10 q-60 0 -100 28.5 q-40 28.5 -50 78.5 l-1 0 l0 -97 l-79 0 l0 730 l79 0 l0 -157 l-1 -120 l2 0 q10 50 50.5 78.5 q40.5 28.5 99.5 28.5 q83 0 133 -55 q50 -55 50 -149 l0 -163 q0 -94 -50.5 -148.5 q-50.5 -54.5 -132.5 -54.5 ZM302 59 q60 0 94 36 q34 36 34 102 l0 156 q0 66 -34 102 q-34 36 -94 36 q-59 0 -92.5 -36.5 q-33.5 -36.5 -33.5 -101.5 l0 -156 q0 -65 34 -101.5 q34 -36.5 92 -36.5 Z" /><glyph glyph-name="c" unicode="c" d="M303 -10 q-97 0 -155 55.5 q-58 55.5 -58 151.5 l0 156 q0 96 58 151.5 q58 55.5 155 55.5 q95 0 151.5 -51 q56.5 -51 58.5 -139 l-79 0 q-2 56 -36.5 87.5 q-34.5 31.5 -94.5 31.5 q-61 0 -97 -35.5 q-36 -35.5 -36 -100.5 l0 -156 q0 -65 36 -100.5 q36 -35.5 97 -35.5 q60 0 94.5 31.5 q34.5 31.5 36.5 87.5 l79 0 q-2 -88 -58.5 -139 q-56.5 -51 -151.5 -51 Z" /><glyph glyph-name="d" unicode="d" d="M273 -10 q-82 0 -132.5 54.5 q-50.5 54.5 -50.5 148.5 l0 163 q0 94 50 149 q50 55 133 55 q59 0 99.5 -28.5 q40.5 -28.5 50.5 -78.5 l2 0 l-1 120 l0 157 l79 0 l0 -730 l-79 0 l0 97 l-1 0 q-10 -50 -50 -78.5 q-40 -28.5 -100 -28.5 ZM298 59 q58 0 92 36.5 q34 36.5 34 101.5 l0 156 q0 65 -33.5 101.5 q-33.5 36.5 -92.5 36.5 q-60 0 -94 -36 q-34 -36 -34 -102 l0 -156 q0 -66 34 -102 q34 -36 94 -36 Z" /><glyph glyph-name="e" unicode="e" d="M300 -10 q-96 0 -153 56.5 q-57 56.5 -57 150.5 l0 156 q0 94 57 150.5 q57 56.5 153 56.5 q96 0 153 -56.5 q57 -56.5 57 -150.5 l0 -97 l-342 0 l0 -59 q0 -67 34.5 -103.5 q34.5 -36.5 97.5 -36.5 q53 0 86 21 q33 21 43 61 l79 0 q-11 -69 -67 -109 q-56 -40 -141 -40 ZM168 318 l264 0 l0 35 q0 67 -34 103.5 q-34 36.5 -98 36.5 q-64 0 -98 -36.5 q-34 -36.5 -34 -103.5 l0 -35 Z" /><glyph glyph-name="f" unicode="f" d="M225 0 l0 423 l-162 0 l0 72 l162 0 l0 99 q0 63 39.5 99.5 q39.5 36.5 108.5 36.5 l159 0 l0 -72 l-159 0 q-68 0 -68 -64 l0 -99 l227 0 l0 -72 l-227 0 l0 -423 l-80 0 Z" /><glyph glyph-name="g" unicode="g" d="M164 -180 l0 72 l167 0 q92 0 92 89 l0 64 l2 104 l-1 0 q-7 -52 -47 -82.5 q-40 -30.5 -102 -30.5 q-84 0 -133 55 q-49 55 -49 149 l0 117 q0 93 49 148 q49 55 133 55 q61 0 101 -29.5 q40 -29.5 48 -81.5 l0 101 l78 0 l0 -569 q0 -76 -44.5 -118.5 q-44.5 -42.5 -126.5 -42.5 l-167 0 ZM298 105 q58 0 92 36.5 q34 36.5 34 101.5 l0 110 q0 65 -33.5 101.5 q-33.5 36.5 -92.5 36.5 q-60 0 -93 -36 q-33 -36 -33 -102 l0 -110 q0 -66 33 -102 q33 -36 93 -36 Z" /><glyph glyph-name="h" unicode="h" d="M97 0 l0 730 l79 0 l0 -278 l1 0 q9 51 48 79.5 q39 28.5 100 28.5 q82 0 131 -51.5 q49 -51.5 49 -139.5 l0 -369 l-79 0 l0 360 q0 63 -33 98 q-33 35 -90 35 q-59 0 -93 -37 q-34 -37 -34 -103 l0 -353 l-79 0 Z" /><glyph glyph-name="i" unicode="i" d="M88 0 l0 72 l196 0 l0 406 l-175 0 l0 72 l255 0 l0 -478 l186 0 l0 -72 l-462 0 ZM315 651 q-31 0 -49.5 16 q-18.5 16 -18.5 44 q0 29 18.5 46 q18.5 17 49.5 17 q31 0 49.5 -17 q18.5 -17 18.5 -46 q0 -28 -18.5 -44 q-18.5 -16 -49.5 -16 Z" /><glyph glyph-name="j" unicode="j" d="M75 -180 l0 73 l143 0 q65 0 100 34.5 q35 34.5 35 97.5 l0 453 l-258 0 l0 72 l337 0 l0 -525 q0 -94 -57.5 -149.5 q-57.5 -55.5 -156.5 -55.5 l-143 0 ZM387 651 q-31 0 -49.5 16 q-18.5 16 -18.5 44 q0 29 18.5 46 q18.5 17 49.5 17 q31 0 49.5 -17 q18.5 -17 18.5 -46 q0 -28 -18.5 -44 q-18.5 -16 -49.5 -16 Z" /><glyph glyph-name="k" unicode="k" d="M100 0 l0 730 l79 0 l0 -411 l113 0 l163 231 l92 0 l-185 -262 l188 -288 l-93 0 l-164 250 l-114 0 l0 -250 l-79 0 Z" /><glyph glyph-name="l" unicode="l" d="M377 0 q-71 0 -112.5 40.5 q-41.5 40.5 -41.5 109.5 l0 508 l-188 0 l0 72 l267 0 l0 -580 q0 -37 20 -57.5 q20 -20.5 55 -20.5 l170 0 l0 -72 l-170 0 Z" /><glyph glyph-name="m" unicode="m" d="M65 0 l0 550 l70 0 l0 -68 l5 0 q6 35 30.5 56.5 q24.5 21.5 61.5 21.5 q35 0 59.5 -21 q24.5 -21 34.5 -57 l4 0 q7 35 32 56.5 q25 21.5 63 21.5 q49 0 79.5 -38 q30.5 -38 30.5 -101 l0 -421 l-74 0 l0 421 q0 36 -16.5 56.5 q-16.5 20.5 -46.5 20.5 q-31 0 -48 -20.5 q-17 -20.5 -17 -56.5 l0 -421 l-66 0 l0 421 q0 36 -17 56.5 q-17 20.5 -47 20.5 q-30 0 -47 -20.5 q-17 -20.5 -17 -56.5 l0 -421 l-74 0 Z" /><glyph glyph-name="n" unicode="n" d="M97 0 l0 550 l79 0 l0 -102 l0 0 q9 53 48 82.5 q39 29.5 101 29.5 q82 0 131 -51.5 q49 -51.5 49 -139.5 l0 -369 l-79 0 l0 360 q0 63 -33 97 q-33 34 -90 34 q-59 0 -93 -36 q-34 -36 -34 -102 l0 -353 l-79 0 Z" /><glyph glyph-name="o" unicode="o" d="M300 -9 q-97 0 -153.5 56 q-56.5 56 -56.5 152 l0 152 q0 96 56.5 152 q56.5 56 153.5 56 q97 0 153.5 -56 q56.5 -56 56.5 -151 l0 -153 q0 -96 -56.5 -152 q-56.5 -56 -153.5 -56 ZM300 62 q61 0 95.5 35 q34.5 35 34.5 102 l0 152 q0 67 -34.5 102 q-34.5 35 -95.5 35 q-61 0 -95.5 -35 q-34.5 -35 -34.5 -102 l0 -152 q0 -67 34.5 -102 q34.5 -35 95.5 -35 Z" /><glyph glyph-name="p" unicode="p" d="M98 -180 l0 730 l79 0 l0 -97 l0 0 q11 50 51 78.5 q40 28.5 100 28.5 q83 0 132.5 -54.5 q49.5 -54.5 49.5 -148.5 l0 -163 q0 -94 -49.5 -149 q-49.5 -55 -132.5 -55 q-59 0 -99.5 29 q-40.5 29 -50.5 78 l-3 0 l2 -112 l0 -165 l-79 0 ZM304 59 q59 0 93 36 q34 36 34 102 l0 156 q0 66 -34 102 q-34 36 -93 36 q-59 0 -93 -36.5 q-34 -36.5 -34 -101.5 l0 -156 q0 -65 34 -101.5 q34 -36.5 93 -36.5 Z" /><glyph glyph-name="q" unicode="q" d="M424 -180 l0 157 l1 120 l-2 0 q-10 -50 -50.5 -78.5 q-40.5 -28.5 -99.5 -28.5 q-83 0 -131.5 55 q-48.5 55 -48.5 149 l0 163 q0 94 49 148.5 q49 54.5 131 54.5 q60 0 100 -28.5 q40 -28.5 50 -78.5 l1 0 l0 97 l79 0 l0 -730 l-79 0 ZM298 59 q59 0 92.5 36.5 q33.5 36.5 33.5 101.5 l0 156 q0 65 -34 101.5 q-34 36.5 -92 36.5 q-60 0 -93 -36 q-33 -36 -33 -102 l0 -156 q0 -66 33 -102 q33 -36 93 -36 Z" /><glyph glyph-name="r" unicode="r" d="M114 0 l0 550 l79 0 l0 -100 q10 52 48.5 81 q38.5 29 99.5 29 q86 0 137.5 -54.5 q51.5 -54.5 51.5 -146.5 l0 -38 l-81 0 l0 32 q0 66 -33.5 102 q-33.5 36 -96.5 36 q-61 0 -93.5 -35.5 q-32.5 -35.5 -32.5 -102.5 l0 -353 l-79 0 Z" /><glyph glyph-name="s" unicode="s" d="M280 -9 q-82 0 -134.5 39.5 q-52.5 39.5 -54.5 106.5 l81 0 q2 -34 32.5 -54.5 q30.5 -20.5 77.5 -20.5 l48 0 q54 0 81.5 23.5 q27.5 23.5 27.5 62.5 q0 37 -25 60 q-25 23 -70 30 l-83 13 q-157 25 -157 154 q0 73 48.5 113.5 q48.5 40.5 136.5 40.5 l39 0 q81 0 131 -37.5 q50 -37.5 52 -99.5 l-81 0 q-2 30 -30 48 q-28 18 -74 18 l-39 0 q-50 0 -77.5 -22 q-27.5 -22 -27.5 -61 q0 -66 91 -80 l82 -13 q82 -13 122 -51.5 q40 -38.5 40 -107.5 q0 -75 -48 -118.5 q-48 -43.5 -140 -43.5 l-49 0 Z" /><glyph glyph-name="t" unicode="t" d="M360 0 q-67 0 -106 37.5 q-39 37.5 -39 102.5 l0 338 l-156 0 l0 72 l156 0 l0 155 l80 0 l0 -155 l221 0 l0 -72 l-221 0 l0 -338 q0 -32 17.5 -50 q17.5 -18 47.5 -18 l146 0 l0 -72 l-146 0 Z" /><glyph glyph-name="u" unicode="u" d="M299 -10 q-94 0 -149 56 q-55 56 -55 152 l0 352 l79 0 l0 -352 q0 -65 33.5 -101.5 q33.5 -36.5 91.5 -36.5 q59 0 93 36.5 q34 36.5 34 101.5 l0 352 l79 0 l0 -352 q0 -96 -56 -152 q-56 -56 -150 -56 Z" /><glyph glyph-name="v" unicode="v" d="M248 0 l-191 550 l82 0 l131 -381 q11 -31 19 -61.5 q8 -30.5 13 -47.5 q4 17 12 47.5 q8 30.5 19 61.5 l128 381 l82 0 l-191 -550 l-104 0 Z" /><glyph glyph-name="w" unicode="w" d="M128 0 l-89 550 l70 0 l58 -395 q3 -22 6 -49.5 q3 -27.5 5 -44.5 l3 0 q2 17 5.5 44.5 q3.5 27.5 7.5 49.5 l66 395 l80 0 l66 -395 q4 -23 8 -49.5 q4 -26.5 5 -44.5 l4 0 q2 17 5 44.5 q3 27.5 7 49.5 l59 395 l67 0 l-93 -550 l-90 0 l-61 383 q-5 27 -9.5 56.5 q-4.5 29.5 -6.5 47.5 l-3 0 q-2 -18 -6 -47.5 q-4 -29.5 -9 -56.5 l-64 -383 l-91 0 Z" /><glyph glyph-name="x" unicode="x" d="M57 0 l195 283 l-183 267 l93 0 l116 -178 q6 -10 12.5 -22 q6.5 -12 10.5 -20 q3 8 9.5 20 q6.5 12 13.5 22 l116 178 l92 0 l-183 -268 l194 -282 l-93 0 l-124 188 q-7 11 -14 24.5 q-7 13.5 -11 21.5 q-5 -8 -12.5 -21.5 q-7.5 -13.5 -14.5 -24.5 l-125 -188 l-92 0 Z" /><glyph glyph-name="y" unicode="y" d="M184 -180 l81 215 l-208 515 l87 0 l134 -343 q8 -20 16 -44.5 q8 -24.5 12 -40.5 q4 16 12 40.5 q8 24.5 16 45.5 l125 342 l84 0 l-276 -730 l-83 0 Z" /><glyph glyph-name="z" unicode="z" d="M93 0 l0 78 l313 400 l-304 0 l0 72 l393 0 l0 -79 l-317 -399 l329 0 l0 -72 l-414 0 Z" /><glyph glyph-name="uni0394" unicode="&#x394;" d="M55 0 l193 730 l105 0 l192 -730 l-490 0 ZM265 510 l-112 -439 l294 0 l-112 439 q-12 49 -21.5 92.5 q-9.5 43.5 -13.5 65.5 q-4 -22 -13.5 -65 q-9.5 -43 -21.5 -93 Z" /><glyph glyph-name="Sigma" unicode="&#x3a3;" d="M78 0 l0 71 l235 301 l-235 287 l0 71 l473 0 l0 -71 l-381 0 l239 -285 l-239 -303 l381 0 l0 -71 l-473 0 Z" /><glyph glyph-name="zero" unicode="0" d="M300 -10 q-100 0 -158.5 58 q-58.5 58 -58.5 157 l0 320 q0 99 58.5 157 q58.5 58 158.5 58 q100 0 158.5 -58 q58.5 -58 58.5 -157 l0 -320 q0 -98 -58.5 -156.5 q-58.5 -58.5 -158.5 -58.5 ZM300 60 q63 0 100.5 40 q37.5 40 37.5 105 l0 320 q0 65 -37.5 105 q-37.5 40 -100.5 40 q-63 0 -100.5 -40 q-37.5 -40 -37.5 -105 l0 -320 q0 -65 37.5 -105 q37.5 -40 100.5 -40 ZM300 309 q-26 0 -41.5 16.5 q-15.5 16.5 -15.5 42.5 q0 26 15.5 41.5 q15.5 15.5 41.5 15.5 q26 0 41.5 -15.5 q15.5 -15.5 15.5 -41.5 q0 -26 -15.5 -42.5 q-15.5 -16.5 -41.5 -16.5 Z" /><glyph glyph-name="one" unicode="1" d="M93 0 l0 72 l200 0 l0 591 l-198 -147 l0 88 l170 126 l107 0 l0 -658 l165 0 l0 -72 l-444 0 Z" /><glyph glyph-name="two" unicode="2" d="M93 0 l0 79 l233 250 q56 59 82 107 q26 48 26 95 q0 63 -37.5 101 q-37.5 38 -101.5 38 q-65 0 -102.5 -38.5 q-37.5 -38.5 -37.5 -103.5 l-80 0 q2 97 61.5 154.5 q59.5 57.5 158.5 57.5 q100 0 159 -56.5 q59 -56.5 59 -152.5 q0 -57 -32.5 -117 q-32.5 -60 -102.5 -134 l-195 -208 l344 0 l0 -72 l-434 0 Z" /><glyph glyph-name="three" unicode="3" d="M289 -10 q-64 0 -112.5 26 q-48.5 26 -75 72.5 q-26.5 46.5 -26.5 108.5 l80 0 q0 -64 36 -100 q36 -36 99 -36 q64 0 99.5 37 q35.5 37 35.5 99 l0 56 q0 64 -35.5 99.5 q-35.5 35.5 -99.5 35.5 l-72 0 l0 69 l178 201 l-292 0 l0 72 l381 0 l0 -74 l-175 -198 q90 -5 142.5 -60 q52.5 -55 52.5 -145 l0 -56 q0 -62 -27 -108.5 q-27 -46.5 -75.5 -72.5 q-48.5 -26 -113.5 -26 Z" /><glyph glyph-name="four" unicode="4" d="M405 0 l0 163 l-331 0 l0 130 l271 437 l87 0 l-279 -454 l0 -41 l252 0 l0 185 l80 0 l0 -420 l-80 0 Z" /><glyph glyph-name="five" unicode="5" d="M299 -10 q-89 0 -145 46.5 q-56 46.5 -65 125.5 l79 0 q5 -48 38.5 -74.5 q33.5 -26.5 92.5 -26.5 q65 0 99 36.5 q34 36.5 34 103.5 l0 70 q0 66 -33.5 102.5 q-33.5 36.5 -98.5 36.5 q-43 0 -73.5 -22.5 q-30.5 -22.5 -43.5 -61.5 l-79 0 l5 404 l378 0 l0 -72 l-301 0 l-3 -260 l2 0 q10 38 47 60 q37 22 93 22 q88 1 137 -54.5 q49 -55.5 49 -154.5 l0 -70 q0 -97 -56.5 -154 q-56.5 -57 -155.5 -57 Z" /><glyph glyph-name="six" unicode="6" d="M301 -10 q-70 0 -122.5 29 q-52.5 29 -81.5 81.5 q-29 52.5 -29 121.5 q0 48 17.5 97.5 q17.5 49.5 47.5 101.5 l175 309 l87 0 l-200 -339 l4 -3 q18 25 52.5 41.5 q34.5 16.5 79.5 16.5 q60 0 105.5 -28 q45.5 -28 70.5 -78 q25 -50 25 -116 q0 -70 -29 -122.5 q-29 -52.5 -81 -82 q-52 -29.5 -121 -29.5 ZM300 61 q68 0 110.5 44 q42.5 44 42.5 117 q0 72 -42.5 117 q-42.5 45 -110.5 45 q-68 0 -110 -45 q-42 -45 -43 -117 q0 -73 42 -117 q42 -44 111 -44 Z" /><glyph glyph-name="seven" unicode="7" d="M195 0 l266 656 l-298 0 l0 -126 l-80 0 l0 200 l459 0 l0 -76 l-259 -654 l-88 0 Z" /><glyph glyph-name="eight" unicode="8" d="M300 -10 q-69 0 -120.5 24 q-51.5 24 -80 67 q-28.5 43 -28.5 100 q0 63 40.5 115.5 q40.5 52.5 112.5 84.5 q-68 32 -102 77.5 q-34 45.5 -34 98.5 q0 54 27.5 95 q27.5 41 75.5 65 q48 24 109 24 q61 0 110 -24 q49 -24 77 -65.5 q28 -41.5 28 -94.5 q0 -52 -35 -97.5 q-35 -45.5 -103 -78.5 q72 -32 112 -84.5 q40 -52.5 40 -115.5 q0 -57 -28.5 -100 q-28.5 -43 -80 -67 q-51.5 -24 -120.5 -24 ZM269 425 l31 -13 l28 12 q51 21 80 55 q29 34 29 75 q0 52 -38.5 84 q-38.5 32 -98.5 32 q-60 0 -97.5 -32 q-37.5 -32 -37.5 -84 q0 -42 28 -76 q28 -34 76 -53 ZM300 61 q68 0 109.5 35 q41.5 35 41.5 93 q0 46 -29 83.5 q-29 37.5 -81 59.5 l-41 17 l-43 -18 q-52 -22 -80 -59 q-28 -37 -28 -83 q0 -58 41.5 -93 q41.5 -35 109.5 -35 Z" /><glyph glyph-name="nine" unicode="9" d="M204 0 l199 339 l-4 3 q-17 -25 -51 -42 q-34 -17 -79 -17 q-59 0 -104 28 q-45 28 -70 78 q-25 50 -25 116 q0 70 28.5 123 q28.5 53 80.5 82.5 q52 29.5 120 29.5 q70 0 122 -29 q52 -29 80.5 -81.5 q28.5 -52.5 28.5 -121.5 q0 -48 -16.5 -97.5 q-16.5 -49.5 -46.5 -101.5 l-175 -309 l-88 0 ZM300 346 q67 0 109 44 q42 44 42 117 q1 73 -41 117.5 q-42 44.5 -110 44.5 q-68 0 -109.5 -44.5 q-41.5 -44.5 -41.5 -118.5 q0 -72 41.5 -116 q41.5 -44 109.5 -44 Z" /><glyph glyph-name="period" unicode="." d="M300 -10 q-37 0 -58.5 21.5 q-21.5 21.5 -21.5 57.5 q0 38 21.5 60 q21.5 22 58.5 22 q37 0 58.5 -22 q21.5 -22 21.5 -60 q0 -36 -21.5 -57.5 q-21.5 -21.5 -58.5 -21.5 Z" /><glyph glyph-name="comma" unicode="," d="M172 -160 l78 311 l120 0 l-129 -311 l-69 0 Z" /><glyph glyph-name="colon" unicode=":" d="M300 412 q-36 0 -58 20 q-22 20 -22 54 q0 33 22 53.5 q22 20.5 58 20.5 q36 0 58 -20.5 q22 -20.5 22 -53.5 q0 -34 -22 -54 q-22 -20 -58 -20 ZM300 -10 q-36 0 -58 20.5 q-22 20.5 -22 53.5 q0 34 22 54 q22 20 58 20 q36 0 58 -20 q22 -20 22 -54 q0 -33 -22 -53.5 q-22 -20.5 -58 -20.5 Z" /><glyph glyph-name="semicolon" unicode=";" d="M291 413 q-32 0 -53 20.5 q-21 20.5 -21 52.5 q0 32 21 53 q21 21 53 21 l18 0 q32 0 52.5 -21 q20.5 -21 20.5 -53 q0 -32 -20.5 -52.5 q-20.5 -20.5 -52.5 -20.5 l-18 0 ZM175 -160 l79 311 l119 0 l-128 -311 l-70 0 Z" /><glyph glyph-name="ellipsis" unicode="&#x2026;" d="M490 -10 q-22 0 -36 15 q-14 15 -14 40 l0 70 q0 25 14 40 q14 15 36 15 q23 0 36.5 -15 q13.5 -15 13.5 -40 l0 -70 q0 -25 -13.5 -40 q-13.5 -15 -36.5 -15 ZM110 -10 q-22 0 -36 15 q-14 15 -14 40 l0 70 q0 25 14 40 q14 15 36 15 q23 0 36.5 -15 q13.5 -15 13.5 -40 l0 -70 q0 -25 -13.5 -40 q-13.5 -15 -36.5 -15 ZM300 -10 q-22 0 -36 15 q-14 15 -14 40 l0 70 q0 25 14 40 q14 15 36 15 q23 0 36.5 -15 q13.5 -15 13.5 -40 l0 -70 q0 -25 -13.5 -40 q-13.5 -15 -36.5 -15 Z" /><glyph glyph-name="exclam" unicode="!" d="M273 212 l-20 387 l0 131 l94 0 l0 -131 l-20 -387 l-54 0 ZM289 -5 q-26 0 -42 16.5 q-16 16.5 -16 42.5 q0 26 16 42 q16 16 42 16 l24 0 q27 0 42.5 -16 q15.5 -16 15.5 -42 q0 -25 -16.5 -42 q-16.5 -17 -41.5 -17 l-24 0 Z" /><glyph glyph-name="question" unicode="?" d="M215 205 l0 177 l50 0 q66 0 104.5 37.5 q38.5 37.5 38.5 99.5 q0 62 -39 99.5 q-39 37.5 -106 37.5 l-129 0 l0 74 l129 0 q68 0 118.5 -26 q50.5 -26 78.5 -73.5 q28 -47.5 28 -111.5 q0 -58 -24 -103.5 q-24 -45.5 -67.5 -71.5 q-43.5 -26 -101.5 -29 l0 -110 l-80 0 ZM242 -5 q-26 0 -42.5 16.5 q-16.5 16.5 -16.5 42.5 q0 26 16.5 42 q16.5 16 42.5 16 l23 0 q28 0 43.5 -16 q15.5 -16 15.5 -42 q0 -25 -16.5 -42 q-16.5 -17 -42.5 -17 l-23 0 Z" /><glyph glyph-name="periodcentered" unicode="·" d="M300 261 q-37 0 -58.5 21.5 q-21.5 21.5 -21.5 57.5 q0 38 21.5 60 q21.5 22 58.5 22 q37 0 58.5 -22 q21.5 -22 21.5 -60 q0 -36 -21.5 -57.5 q-21.5 -21.5 -58.5 -21.5 Z" /><glyph glyph-name="bullet" unicode="&#x2022;" d="M300 252 q-50 0 -81.5 31.5 q-31.5 31.5 -31.5 81.5 q0 50 31.5 81.5 q31.5 31.5 81.5 31.5 q50 0 81.5 -31.5 q31.5 -31.5 31.5 -81.5 q0 -50 -31.5 -81.5 q-31.5 -31.5 -81.5 -31.5 Z" /><glyph glyph-name="asterisk" unicode="*" d="M177 97 l-65 45 l60 84 q21 31 47.5 55.5 q26.5 24.5 45.5 41.5 l-3 9 q-26 3 -60.5 8 q-34.5 5 -68.5 17 l-96 35 l27 75 l96 -35 q34 -13 64.5 -31.5 q30.5 -18.5 51.5 -34.5 l6 5 q-6 25 -13.5 61.5 q-7.5 36.5 -7.5 73.5 l0 104 l78 0 l0 -104 q0 -37 -7.5 -73.5 q-7.5 -36.5 -14.5 -61.5 l6 -5 q21 15 51.5 34 q30.5 19 64.5 31 l97 35 l27 -74 l-97 -35 q-34 -12 -68.5 -17.5 q-34.5 -5.5 -59.5 -7.5 l-4 -10 q20 -17 46 -41.5 q26 -24.5 47 -54.5 l60 -85 l-65 -45 l-60 85 q-21 31 -35 64 q-14 33 -23 58 l-9 0 q-9 -25 -23 -58 q-14 -33 -36 -64 l-59 -84 Z" /><glyph glyph-name="numbersign" unicode="#" d="M85 0 l41 215 l-91 0 l0 59 l101 0 l34 182 l-100 0 l0 59 l111 0 l40 215 l63 0 l-40 -215 l167 0 l40 215 l64 0 l-41 -215 l91 0 l0 -59 l-101 0 l-34 -182 l100 0 l0 -59 l-111 0 l-40 -215 l-63 0 l40 215 l-167 0 l-40 -215 l-64 0 ZM199 274 l167 0 l35 182 l-167 0 l-35 -182 Z" /><glyph glyph-name="slash" unicode="/" d="M80 -110 l356 940 l84 0 l-356 -940 l-84 0 Z" /><glyph glyph-name="backslash" unicode="\" d="M436 -110 l-356 940 l84 0 l356 -940 l-84 0 Z" /><glyph glyph-name="parenleft" unicode="(" d="M485 -120 q-139 35 -216 136.5 q-77 101.5 -77 250.5 l0 186 q0 98 35 177 q35 79 101 133 q66 54 157 77 l0 -75 q-66 -15 -114 -58.5 q-48 -43.5 -74 -108 q-26 -64.5 -26 -145.5 l0 -186 q0 -120 57 -203 q57 -83 157 -106 l0 -78 Z" /><glyph glyph-name="parenright" unicode=")" d="M115 -120 l0 78 q100 23 157 106 q57 83 57 203 l0 186 q0 81 -26 145.5 q-26 64.5 -74 108 q-48 43.5 -114 58.5 l0 75 q91 -23 157 -77 q66 -54 101 -133 q35 -79 35 -177 l0 -186 q0 -149 -77 -250.5 q-77 -101.5 -216 -136.5 Z" /><glyph glyph-name="braceleft" unicode="{" d="M453 -110 q-84 0 -133.5 42.5 q-49.5 42.5 -41.5 119.5 l16 173 q5 53 -15 76 q-20 23 -85 23 l-115 0 l0 71 l115 0 q64 0 84.5 23 q20.5 23 15.5 77 l-16 173 q-8 77 41.5 119.5 q49.5 42.5 133.5 42.5 l48 0 l0 -71 l-48 0 q-47 0 -73.5 -23 q-26.5 -23 -22.5 -68 l16 -173 q6 -54 -20 -88.5 q-26 -34.5 -73 -43.5 q47 -9 73 -46.5 q26 -37.5 20 -91.5 l-16 -173 q-4 -45 22.5 -68 q26.5 -23 73.5 -23 l48 0 l0 -71 l-48 0 Z" /><glyph glyph-name="braceright" unicode="}" d="M99 -110 l0 71 l47 0 q47 0 74 23 q27 23 23 68 l-16 173 q-5 54 21 91.5 q26 37.5 73 47.5 q-47 8 -73 42.5 q-26 34.5 -21 88.5 l16 173 q4 45 -23 68 q-27 23 -74 23 l-47 0 l0 71 l47 0 q85 0 134 -42.5 q49 -42.5 42 -119.5 l-15 -173 q-5 -54 15 -77 q20 -23 85 -23 l114 0 l0 -71 l-114 0 q-65 0 -85 -23 q-20 -23 -15 -76 l15 -173 q7 -77 -42 -119.5 q-49 -42.5 -134 -42.5 l-47 0 Z" /><glyph glyph-name="bracketleft" unicode="[" d="M209 -110 l0 940 l240 0 l0 -71 l-161 0 l0 -798 l161 0 l0 -71 l-240 0 Z" /><glyph glyph-name="bracketright" unicode="]" d="M151 -110 l0 71 l161 0 l0 798 l-161 0 l0 71 l240 0 l0 -940 l-240 0 Z" /><glyph glyph-name="uni230A" unicode="&#x230a;" d="M209 -110 l0 940 l79 0 l0 -869 l161 0 l0 -71 l-240 0 Z" /><glyph glyph-name="uni230B" unicode="&#x230b;" d="M151 -110 l0 71 l161 0 l0 869 l79 0 l0 -940 l-240 0 Z" /><glyph glyph-name="hyphen" unicode="-" d="M140 295 l0 70 l320 0 l0 -70 l-320 0 Z" /><glyph glyph-name="endash" unicode="&#x2013;" d="M80 295 l0 71 l440 0 l0 -71 l-440 0 Z" /><glyph glyph-name="underscore" unicode="_" d="M60 -92 l0 67 l480 0 l0 -67 l-480 0 Z" /><glyph glyph-name="quotedblleft" unicode="&#x201c;" d="M310 465 l129 311 l69 0 l-78 -311 l-120 0 ZM82 465 l128 311 l70 0 l-79 -311 l-119 0 Z" /><glyph glyph-name="quotedblright" unicode="&#x201d;" d="M320 465 l79 311 l119 0 l-128 -311 l-70 0 ZM92 465 l78 311 l120 0 l-129 -311 l-69 0 Z" /><glyph glyph-name="quoteleft" unicode="&#x2018;" d="M433 775 l-78 -311 l-120 0 l129 311 l69 0 Z" /><glyph glyph-name="quoteright" unicode="&#x2019;" d="M205 465 l78 311 l120 0 l-129 -311 l-69 0 Z" /><glyph glyph-name="quotedbl" unicode="&quot;" d="M368 430 l-11 210 l0 90 l88 0 l0 -90 l-10 -210 l-67 0 ZM166 430 l-11 210 l0 90 l88 0 l0 -90 l-10 -210 l-67 0 Z" /><glyph glyph-name="quotesingle" unicode="&#39;" d="M263 430 l-11 145 l0 155 l88 0 l0 -155 l-10 -145 l-67 0 Z" /><glyph glyph-name="dollar" unicode="$" d="M278 -140 l0 131 q-94 7 -147.5 59.5 q-53.5 52.5 -55.5 138.5 l80 0 q0 -54 32.5 -87 q32.5 -33 90.5 -40 l0 278 l-27 8 q-75 22 -115.5 75.5 q-40.5 53.5 -40.5 125.5 q0 80 49.5 131 q49.5 51 133.5 58 l0 132 l54 0 l0 -131 q84 -7 133 -59 q49 -52 50 -134 l-79 0 q0 50 -27.5 82.5 q-27.5 32.5 -76.5 39.5 l0 -262 l37 -12 q74 -23 115 -78 q41 -55 41 -129 q0 -83 -52.5 -135.5 q-52.5 -52.5 -140.5 -60.5 l0 -131 l-54 0 ZM175 556 q0 -48 26.5 -83 q26.5 -35 76.5 -49 l0 244 q-49 -7 -76 -36 q-27 -29 -27 -76 ZM332 62 q54 7 83.5 39 q29.5 32 29.5 84 q0 47 -26 83 q-26 36 -73 50 l-14 4 l0 -260 Z" /><glyph glyph-name="uni2223" unicode="&#x2223;" d="M260 0 l0 730 l80 0 l0 -730 l-80 0 Z" /><glyph glyph-name="uni23A9" unicode="&#x23a9;" d="M436 -110 q-84 0 -130 42.5 q-46 42.5 -46 119.5 l0 968 l80 0 l0 -968 q0 -91 96 -91 l48 0 l0 -71 l-48 0 Z" /><glyph glyph-name="uni23A8" unicode="&#x23a8;" d="M260 -300 l0 525 q0 35 -7 57 q-7 22 -28.5 32 q-21.5 10 -64.5 10 l-110 0 l0 71 l110 0 q43 0 64.5 10 q21.5 10 28.5 32 q7 22 7 58 l0 525 l80 0 l0 -525 q0 -55 -24.5 -90.5 q-24.5 -35.5 -69.5 -44.5 q45 -9 69.5 -45 q24.5 -36 24.5 -90 l0 -525 l-80 0 Z" /><glyph glyph-name="uni23A7" unicode="&#x23a7;" d="M260 -300 l0 968 q0 77 46 119.5 q46 42.5 130 42.5 l48 0 l0 -71 l-48 0 q-96 0 -96 -91 l0 -968 l-80 0 Z" /><glyph glyph-name="uni22EF" unicode="&#x22ef;" d="M58 267 q-31 0 -49.5 18.5 q-18.5 18.5 -18.5 48.5 q0 30 18.5 48.5 q18.5 18.5 49.5 18.5 q30 0 48.5 -18.5 q18.5 -18.5 18.5 -48.5 q0 -30 -18.5 -48.5 q-18.5 -18.5 -48.5 -18.5 ZM301 267 q-31 0 -49.5 18.5 q-18.5 18.5 -18.5 48.5 q0 30 18.5 48.5 q18.5 18.5 49.5 18.5 q30 0 48.5 -18.5 q18.5 -18.5 18.5 -48.5 q0 -30 -18.5 -48.5 q-18.5 -18.5 -48.5 -18.5 ZM543 267 q-31 0 -49.5 18.5 q-18.5 18.5 -18.5 48.5 q0 30 18.5 48.5 q18.5 18.5 49.5 18.5 q30 0 48.5 -18.5 q18.5 -18.5 18.5 -48.5 q0 -30 -18.5 -48.5 q-18.5 -18.5 -48.5 -18.5 Z" /><glyph glyph-name="plus" unicode="+" d="M261 96 l0 199 l-193 0 l0 71 l193 0 l0 199 l78 0 l0 -199 l193 0 l0 -71 l-193 0 l0 -199 l-78 0 Z" /><glyph glyph-name="minus" unicode="&#x2212;" d="M140 295 l0 70 l320 0 l0 -70 l-320 0 Z" /><glyph glyph-name="multiply" unicode="×" d="M154 138 l-47 47 l144 144 l-144 145 l47 47 l144 -144 l147 147 l47 -48 l-147 -147 l145 -144 l-48 -47 l-144 145 l-144 -145 Z" /><glyph glyph-name="divide" unicode="÷" d="M300 459 q-36 0 -58 20.5 q-22 20.5 -22 53.5 q0 33 22 53.5 q22 20.5 58 20.5 q36 0 58 -20.5 q22 -20.5 22 -53.5 q0 -33 -22 -53.5 q-22 -20.5 -58 -20.5 ZM100 299 l0 68 l400 0 l0 -68 l-400 0 ZM300 58 q-36 0 -58 20.5 q-22 20.5 -22 53.5 q0 33 22 53.5 q22 20.5 58 20.5 q36 0 58 -20.5 q22 -20.5 22 -53.5 q0 -33 -22 -53.5 q-22 -20.5 -58 -20.5 Z" /><glyph glyph-name="equal" unicode="=" d="M88 413 l0 71 l424 0 l0 -71 l-424 0 ZM88 177 l0 70 l424 0 l0 -70 l-424 0 Z" /><glyph glyph-name="greater" unicode="&gt;" d="M86 69 l0 78 l305 152 q20 10 38 18 q18 8 28 11 q-10 4 -28.5 11.5 q-18.5 7.5 -37.5 17.5 l-305 154 l0 80 l428 -218 l0 -86 l-428 -218 Z" /><glyph glyph-name="less" unicode="&lt;" d="M514 69 l-428 218 l0 86 l428 218 l0 -78 l-305 -152 q-20 -10 -38 -18 q-18 -8 -28 -11 q10 -4 28.5 -11.5 q18.5 -7.5 37.5 -17.5 l305 -154 l0 -80 Z" /><glyph glyph-name="greaterequal" unicode="&#x2265;" d="M86 194 l0 78 l305 152 q20 10 38 18 q18 8 28 11 q-10 4 -28.5 11.5 q-18.5 7.5 -37.5 17.5 l-305 154 l0 80 l428 -218 l0 -86 l-428 -218 ZM86 0 l0 71 l428 0 l0 -71 l-428 0 Z" /><glyph glyph-name="asciitilde" unicode="~" d="M75 256 l0 72 q0 56 34 90 q34 34 90 34 q36 0 60.5 -13.5 q24.5 -13.5 42 -33 q17.5 -19.5 32 -39.5 q14.5 -20 30 -33.5 q15.5 -13.5 37.5 -13.5 q49 0 49 58 l0 72 l75 0 l0 -72 q0 -56 -33.5 -90 q-33.5 -34 -88.5 -34 q-37 0 -62 13.5 q-25 13.5 -42.5 33 q-17.5 19.5 -31.5 39.5 q-14 20 -29.5 33.5 q-15.5 13.5 -37.5 13.5 q-50 0 -50 -58 l0 -72 l-75 0 Z" /><glyph glyph-name="asciicircum" unicode="^" d="M85 340 l179 390 l75 0 l176 -390 l-75 0 l-112 259 q-8 19 -15 38.5 q-7 19.5 -10 30.5 q-4 -11 -11.5 -30.5 q-7.5 -19.5 -16.5 -38.5 l-115 -259 l-75 0 Z" /><glyph glyph-name="union" unicode="&#x222a;" d="M50 730 l80 0 l0 -515 q0 -70 37 -107 q37 -37 107 -37 l52 0 q70 0 107 37 q37 37 37 107 l0 515 l80 0 l0 -515 q0 -105 -57 -160 q-57 -55 -165 -55 l-56 0 q-108 0 -165 55 q-57 55 -57 160 l0 515 Z" /><glyph glyph-name="summation" unicode="&#x2211;" d="M55 -180 l0 73 l285 383 l-285 381 l0 73 l485 0 l0 -72 l-388 0 l284 -382 l-286 -384 l390 0 l0 -72 l-485 0 Z" /><glyph glyph-name="percent" unicode="%" d="M156 400 q-61 0 -98 35.5 q-37 35.5 -37 98.5 l0 67 q0 63 37 98.5 q37 35.5 98 35.5 q62 0 99 -35.5 q37 -35.5 37 -98.5 l0 -67 q0 -63 -37 -98.5 q-37 -35.5 -99 -35.5 ZM16 0 l502 730 l66 0 l-502 -730 l-66 0 ZM156 461 q70 0 70 73 l0 67 q0 73 -70 73 q-69 0 -69 -73 l0 -67 q0 -73 69 -73 ZM444 -5 q-62 0 -99 35.5 q-37 35.5 -37 98.5 l0 67 q0 63 37 98.5 q37 35.5 99 35.5 q61 0 98 -35.5 q37 -35.5 37 -98.5 l0 -67 q0 -63 -37 -98.5 q-37 -35.5 -98 -35.5 ZM444 57 q69 0 69 72 l0 67 q0 73 -69 73 q-70 0 -70 -73 l0 -67 q0 -72 70 -72 Z" /><glyph glyph-name="uni2500" unicode="&#x2500;" d="M-20 320 l0 100 l640 0 l0 -100 l-640 0 Z" /><glyph glyph-name="uni2502" unicode="&#x2502;" d="M250 -400 l0 1520 l100 0 l0 -1520 l-100 0 Z" /><glyph glyph-name="uni251C" unicode="&#x251c;" d="M250 -400 l0 1520 l100 0 l0 -700 l270 0 l0 -100 l-270 0 l0 -720 l-100 0 Z" /><glyph glyph-name="at" unicode="@" d="M325 -180 q-84 0 -146 36 q-62 36 -95.5 101.5 q-33.5 65.5 -33.5 154.5 l0 337 q0 135 70.5 213 q70.5 78 194.5 78 q112 0 176.5 -66.5 q64.5 -66.5 64.5 -181.5 l0 -427 l-69 0 l0 65 l-4 0 q-5 -34 -34 -54.5 q-29 -20.5 -74 -20.5 q-65 0 -99.5 39.5 q-34.5 39.5 -34.5 115.5 l0 123 q0 74 34.5 113 q34.5 39 99.5 39 q46 0 74.5 -20 q28.5 -20 33.5 -55 l5 0 l-4 77 l0 5 q0 89 -44 137 q-44 48 -125 48 q-92 0 -142.5 -60 q-50.5 -60 -50.5 -168 l0 -337 q0 -104 54 -164.5 q54 -60.5 149 -60.5 l71 0 l0 -67 l-71 0 ZM399 113 q85 0 85 104 l0 116 q0 94 -85 94 q-86 0 -86 -94 l0 -123 q0 -97 86 -97 Z" /><glyph glyph-name="ampersand" unicode="&amp;" d="M227 -10 q-79 0 -124 44 q-45 44 -45 121 l0 121 q0 58 29.5 96 q29.5 38 83.5 51 l-7 3 q-33 44 -47.5 81.5 q-14.5 37.5 -14.5 73.5 q0 71 48 115 q48 44 128 44 q84 0 134 -47 q50 -47 50 -124 l-80 0 q0 46 -28.5 74 q-28.5 28 -75.5 28 q-44 0 -70.5 -25.5 q-26.5 -25.5 -26.5 -66.5 q0 -26 12 -56.5 q12 -30.5 34 -59.5 l174 -239 l75 136 l82 0 l-111 -199 l118 -161 l-87 0 l-71 95 q-74 -105 -180 -105 ZM232 61 q37 0 71.5 24.5 q34.5 24.5 59.5 70.5 l-154 209 q-72 -9 -72 -89 l0 -121 q0 -44 25.5 -69 q25.5 -25 69.5 -25 Z" /><glyph glyph-name="copyright" unicode="©" d="M300 110 q-76 0 -133 30 q-57 30 -88.5 84 q-31.5 54 -31.5 126 l0 150 q0 72 31.5 126 q31.5 54 88.5 84 q57 30 133 30 q76 0 133 -30 q57 -30 88.5 -84 q31.5 -54 31.5 -126 l0 -150 q0 -72 -31.5 -126 q-31.5 -54 -88.5 -84 q-57 -30 -133 -30 ZM300 157 q60 0 105.5 24 q45.5 24 70.5 67.5 q25 43.5 25 101.5 l0 150 q0 58 -25 101.5 q-25 43.5 -70.5 67.5 q-45.5 24 -105.5 24 q-60 0 -105.5 -24 q-45.5 -24 -70.5 -67.5 q-25 -43.5 -25 -101.5 l0 -150 q0 -58 25 -101.5 q25 -43.5 70.5 -67.5 q45.5 -24 105.5 -24 ZM305 245 q-55 0 -88.5 31.5 q-33.5 31.5 -33.5 83.5 l0 130 q0 52 33.5 83.5 q33.5 31.5 88.5 31.5 q54 0 87.5 -31.5 q33.5 -31.5 33.5 -83.5 l-59 0 q0 29 -17.5 46.5 q-17.5 17.5 -44.5 17.5 q-28 0 -45.5 -17.5 q-17.5 -17.5 -17.5 -46.5 l0 -130 q0 -29 17.5 -46.5 q17.5 -17.5 45.5 -17.5 q27 0 44.5 17.5 q17.5 17.5 17.5 46.5 l59 0 q0 -52 -33.5 -83.5 q-33.5 -31.5 -87.5 -31.5 Z" /><glyph glyph-name="bar" unicode="|" d="M260 -110 l0 940 l80 0 l0 -940 l-80 0 Z" /><glyph glyph-name="grave" unicode="`" d="M281 645 l-114 140 l90 0 l109 -140 l-85 0 Z" /></font>
</defs>
</svg>
